<mxfile host="app.diagrams.net" modified="2023-05-18T13:18:08.895Z" agent="Mozilla/5.0 (Windows NT 10.0; Win64; x64) AppleWebKit/537.36 (KHTML, like Gecko) Chrome/113.0.0.0 Safari/537.36 Edg/113.0.1774.42" etag="MhZ6l--zaCDVNRvrmYOo" version="21.2.9" type="github">
  <diagram name="第 1 页" id="1TlrbtWuX3vKmyQwFwQM">
    <mxGraphModel dx="1562" dy="837" grid="1" gridSize="10" guides="1" tooltips="1" connect="1" arrows="1" fold="1" page="1" pageScale="1" pageWidth="827" pageHeight="1169" math="0" shadow="0">
      <root>
        <mxCell id="0" />
        <mxCell id="1" parent="0" />
        <mxCell id="c0oPgKCWFj7dryv76GOQ-22" style="edgeStyle=orthogonalEdgeStyle;rounded=0;orthogonalLoop=1;jettySize=auto;html=1;exitX=1;exitY=0.5;exitDx=0;exitDy=0;" edge="1" parent="1" source="c0oPgKCWFj7dryv76GOQ-2" target="c0oPgKCWFj7dryv76GOQ-10">
          <mxGeometry relative="1" as="geometry" />
        </mxCell>
        <mxCell id="c0oPgKCWFj7dryv76GOQ-2" value="大规模&lt;br style=&quot;font-size: 14px;&quot;&gt;多层次&lt;br style=&quot;font-size: 14px;&quot;&gt;若结构" style="rounded=1;whiteSpace=wrap;html=1;fontSize=14;fillColor=#dae8fc;strokeColor=#6c8ebf;" vertex="1" parent="1">
          <mxGeometry x="240" y="430" width="120" height="60" as="geometry" />
        </mxCell>
        <mxCell id="c0oPgKCWFj7dryv76GOQ-3" value="5G网络的特点" style="text;html=1;strokeColor=none;fillColor=none;align=center;verticalAlign=middle;whiteSpace=wrap;rounded=0;fontSize=14;" vertex="1" parent="1">
          <mxGeometry x="250" y="370" width="100" height="20" as="geometry" />
        </mxCell>
        <mxCell id="c0oPgKCWFj7dryv76GOQ-25" style="edgeStyle=orthogonalEdgeStyle;rounded=0;orthogonalLoop=1;jettySize=auto;html=1;exitX=1;exitY=0.5;exitDx=0;exitDy=0;entryX=0;entryY=0.5;entryDx=0;entryDy=0;" edge="1" parent="1" source="c0oPgKCWFj7dryv76GOQ-4" target="c0oPgKCWFj7dryv76GOQ-11">
          <mxGeometry relative="1" as="geometry" />
        </mxCell>
        <mxCell id="c0oPgKCWFj7dryv76GOQ-4" value="Web浏览&lt;br style=&quot;font-size: 14px;&quot;&gt;文件共享&lt;br style=&quot;font-size: 14px;&quot;&gt;线上支付&lt;br style=&quot;font-size: 14px;&quot;&gt;微信" style="rounded=1;whiteSpace=wrap;html=1;fontSize=14;fillColor=#dae8fc;strokeColor=#6c8ebf;" vertex="1" parent="1">
          <mxGeometry x="240" y="525" width="120" height="60" as="geometry" />
        </mxCell>
        <mxCell id="c0oPgKCWFj7dryv76GOQ-28" style="edgeStyle=orthogonalEdgeStyle;rounded=0;orthogonalLoop=1;jettySize=auto;html=1;exitX=1;exitY=0.5;exitDx=0;exitDy=0;" edge="1" parent="1" source="c0oPgKCWFj7dryv76GOQ-5" target="c0oPgKCWFj7dryv76GOQ-13">
          <mxGeometry relative="1" as="geometry" />
        </mxCell>
        <mxCell id="c0oPgKCWFj7dryv76GOQ-5" value="有限能源、存储&lt;br style=&quot;font-size: 14px;&quot;&gt;和计算能力" style="rounded=1;whiteSpace=wrap;html=1;fontSize=14;fillColor=#dae8fc;strokeColor=#6c8ebf;" vertex="1" parent="1">
          <mxGeometry x="240" y="630" width="120" height="60" as="geometry" />
        </mxCell>
        <mxCell id="c0oPgKCWFj7dryv76GOQ-6" value="异构网络" style="text;html=1;strokeColor=none;fillColor=none;align=center;verticalAlign=middle;whiteSpace=wrap;rounded=0;fontSize=14;" vertex="1" parent="1">
          <mxGeometry x="270" y="400" width="60" height="30" as="geometry" />
        </mxCell>
        <mxCell id="c0oPgKCWFj7dryv76GOQ-7" value="差异化服务" style="text;html=1;strokeColor=none;fillColor=none;align=center;verticalAlign=middle;whiteSpace=wrap;rounded=0;fontSize=14;" vertex="1" parent="1">
          <mxGeometry x="260" y="495" width="80" height="30" as="geometry" />
        </mxCell>
        <mxCell id="c0oPgKCWFj7dryv76GOQ-8" value="弱资源设备" style="text;html=1;strokeColor=none;fillColor=none;align=center;verticalAlign=middle;whiteSpace=wrap;rounded=0;fontSize=14;" vertex="1" parent="1">
          <mxGeometry x="250" y="600" width="90" height="30" as="geometry" />
        </mxCell>
        <mxCell id="c0oPgKCWFj7dryv76GOQ-23" style="edgeStyle=orthogonalEdgeStyle;rounded=0;orthogonalLoop=1;jettySize=auto;html=1;exitX=1;exitY=0.5;exitDx=0;exitDy=0;entryX=0;entryY=0.5;entryDx=0;entryDy=0;" edge="1" parent="1" source="c0oPgKCWFj7dryv76GOQ-10" target="c0oPgKCWFj7dryv76GOQ-15">
          <mxGeometry relative="1" as="geometry" />
        </mxCell>
        <mxCell id="c0oPgKCWFj7dryv76GOQ-10" value="秘钥的分发和管理困难" style="rounded=1;whiteSpace=wrap;html=1;fontSize=14;" vertex="1" parent="1">
          <mxGeometry x="414" y="430" width="120" height="60" as="geometry" />
        </mxCell>
        <mxCell id="c0oPgKCWFj7dryv76GOQ-26" style="edgeStyle=orthogonalEdgeStyle;rounded=0;orthogonalLoop=1;jettySize=auto;html=1;exitX=1;exitY=0.5;exitDx=0;exitDy=0;" edge="1" parent="1" source="c0oPgKCWFj7dryv76GOQ-11" target="c0oPgKCWFj7dryv76GOQ-16">
          <mxGeometry relative="1" as="geometry" />
        </mxCell>
        <mxCell id="c0oPgKCWFj7dryv76GOQ-11" value="个性化的安全服务和差异化的安全层级" style="rounded=1;whiteSpace=wrap;html=1;fontSize=14;" vertex="1" parent="1">
          <mxGeometry x="415" y="525" width="120" height="60" as="geometry" />
        </mxCell>
        <mxCell id="c0oPgKCWFj7dryv76GOQ-29" style="edgeStyle=orthogonalEdgeStyle;rounded=0;orthogonalLoop=1;jettySize=auto;html=1;exitX=1;exitY=0.5;exitDx=0;exitDy=0;" edge="1" parent="1" source="c0oPgKCWFj7dryv76GOQ-13" target="c0oPgKCWFj7dryv76GOQ-17">
          <mxGeometry relative="1" as="geometry" />
        </mxCell>
        <mxCell id="c0oPgKCWFj7dryv76GOQ-13" value="无法应用复杂的加解密算法和协议" style="rounded=1;whiteSpace=wrap;html=1;fontSize=14;fillColor=#fff2cc;strokeColor=#d6b656;" vertex="1" parent="1">
          <mxGeometry x="415" y="630" width="120" height="60" as="geometry" />
        </mxCell>
        <mxCell id="c0oPgKCWFj7dryv76GOQ-24" style="edgeStyle=orthogonalEdgeStyle;rounded=0;orthogonalLoop=1;jettySize=auto;html=1;exitX=1;exitY=0.5;exitDx=0;exitDy=0;" edge="1" parent="1" source="c0oPgKCWFj7dryv76GOQ-15" target="c0oPgKCWFj7dryv76GOQ-19">
          <mxGeometry relative="1" as="geometry" />
        </mxCell>
        <mxCell id="c0oPgKCWFj7dryv76GOQ-15" value="依赖于加密算法来保证安全性" style="rounded=1;whiteSpace=wrap;html=1;fontSize=14;fillColor=#f8cecc;strokeColor=#b85450;" vertex="1" parent="1">
          <mxGeometry x="575" y="430" width="120" height="60" as="geometry" />
        </mxCell>
        <mxCell id="c0oPgKCWFj7dryv76GOQ-27" style="edgeStyle=orthogonalEdgeStyle;rounded=0;orthogonalLoop=1;jettySize=auto;html=1;exitX=1;exitY=0.5;exitDx=0;exitDy=0;" edge="1" parent="1" source="c0oPgKCWFj7dryv76GOQ-16" target="c0oPgKCWFj7dryv76GOQ-20">
          <mxGeometry relative="1" as="geometry" />
        </mxCell>
        <mxCell id="c0oPgKCWFj7dryv76GOQ-16" value="只提供二进制层面的安全性" style="rounded=1;whiteSpace=wrap;html=1;fontSize=14;fillColor=#f8cecc;strokeColor=#b85450;" vertex="1" parent="1">
          <mxGeometry x="575" y="525" width="120" height="60" as="geometry" />
        </mxCell>
        <mxCell id="c0oPgKCWFj7dryv76GOQ-30" style="edgeStyle=orthogonalEdgeStyle;rounded=0;orthogonalLoop=1;jettySize=auto;html=1;exitX=1;exitY=0.5;exitDx=0;exitDy=0;" edge="1" parent="1" source="c0oPgKCWFj7dryv76GOQ-17" target="c0oPgKCWFj7dryv76GOQ-21">
          <mxGeometry relative="1" as="geometry" />
        </mxCell>
        <mxCell id="c0oPgKCWFj7dryv76GOQ-17" value="需要消耗大量算力进行加解密运算" style="rounded=1;whiteSpace=wrap;html=1;fontSize=14;fillColor=#f8cecc;strokeColor=#b85450;" vertex="1" parent="1">
          <mxGeometry x="575" y="630" width="120" height="60" as="geometry" />
        </mxCell>
        <mxCell id="c0oPgKCWFj7dryv76GOQ-18" value="PLS方法" style="text;html=1;strokeColor=none;fillColor=none;align=center;verticalAlign=middle;whiteSpace=wrap;rounded=0;fontSize=14;" vertex="1" parent="1">
          <mxGeometry x="767" y="370" width="60" height="30" as="geometry" />
        </mxCell>
        <mxCell id="c0oPgKCWFj7dryv76GOQ-19" value="安全性不依赖加解密" style="rounded=1;whiteSpace=wrap;html=1;fontSize=14;fillColor=#d5e8d4;strokeColor=#82b366;" vertex="1" parent="1">
          <mxGeometry x="740" y="430" width="120" height="60" as="geometry" />
        </mxCell>
        <mxCell id="c0oPgKCWFj7dryv76GOQ-20" value="可以应用于不同层次的安全性" style="rounded=1;whiteSpace=wrap;html=1;fontSize=14;fillColor=#d5e8d4;strokeColor=#82b366;" vertex="1" parent="1">
          <mxGeometry x="740" y="525" width="120" height="60" as="geometry" />
        </mxCell>
        <mxCell id="c0oPgKCWFj7dryv76GOQ-21" value="只需要进行简单的信号运算" style="rounded=1;whiteSpace=wrap;html=1;fontSize=14;fillColor=#d5e8d4;strokeColor=#82b366;" vertex="1" parent="1">
          <mxGeometry x="740" y="630" width="120" height="60" as="geometry" />
        </mxCell>
        <mxCell id="c0oPgKCWFj7dryv76GOQ-31" value="" style="swimlane;startSize=0;" vertex="1" parent="1">
          <mxGeometry x="220" y="350" width="170" height="370" as="geometry" />
        </mxCell>
        <mxCell id="c0oPgKCWFj7dryv76GOQ-32" value="" style="swimlane;startSize=0;" vertex="1" parent="1">
          <mxGeometry x="395" y="350" width="165" height="370" as="geometry">
            <mxRectangle x="395" y="350" width="50" height="40" as="alternateBounds" />
          </mxGeometry>
        </mxCell>
        <mxCell id="c0oPgKCWFj7dryv76GOQ-9" value="网络安全威胁" style="text;html=1;strokeColor=none;fillColor=none;align=center;verticalAlign=middle;whiteSpace=wrap;rounded=0;fontSize=14;" vertex="1" parent="c0oPgKCWFj7dryv76GOQ-32">
          <mxGeometry x="35" y="20" width="90" height="30" as="geometry" />
        </mxCell>
        <mxCell id="c0oPgKCWFj7dryv76GOQ-33" value="" style="swimlane;startSize=0;" vertex="1" parent="1">
          <mxGeometry x="570" y="350" width="140" height="370" as="geometry" />
        </mxCell>
        <mxCell id="c0oPgKCWFj7dryv76GOQ-14" value="传统密码学方法" style="text;html=1;strokeColor=none;fillColor=none;align=center;verticalAlign=middle;whiteSpace=wrap;rounded=0;fontSize=14;" vertex="1" parent="c0oPgKCWFj7dryv76GOQ-33">
          <mxGeometry x="15" y="30" width="110" height="30" as="geometry" />
        </mxCell>
        <mxCell id="c0oPgKCWFj7dryv76GOQ-34" value="" style="swimlane;startSize=0;" vertex="1" parent="1">
          <mxGeometry x="730" y="350" width="140" height="370" as="geometry" />
        </mxCell>
        <mxCell id="c0oPgKCWFj7dryv76GOQ-35" value="秘钥的分发和管理困难" style="rounded=1;whiteSpace=wrap;html=1;fontSize=14;fillColor=#fff2cc;strokeColor=#d6b656;" vertex="1" parent="1">
          <mxGeometry x="413" y="430" width="120" height="60" as="geometry" />
        </mxCell>
        <mxCell id="c0oPgKCWFj7dryv76GOQ-36" value="个性化的安全服务和差异化的安全层级" style="rounded=1;whiteSpace=wrap;html=1;fontSize=14;fillColor=#fff2cc;strokeColor=#d6b656;" vertex="1" parent="1">
          <mxGeometry x="414" y="525" width="120" height="60" as="geometry" />
        </mxCell>
      </root>
    </mxGraphModel>
  </diagram>
</mxfile>
